<svg width="112" height="48" viewBox="0 0 112 48" fill="none" xmlns="http://www.w3.org/2000/svg">
<g clip-path="url(#clip0_9311_32150)">
<path d="M36.2621 23.9997C36.2621 32.7248 29.1892 39.7977 20.4641 39.7977C20.1365 39.7977 19.8115 39.7881 19.4892 39.7681C18.1376 39.6861 16.8313 39.4335 15.5925 39.0317C15.1212 38.8795 14.6594 38.7048 14.2088 38.5107C8.59479 36.0881 4.66602 30.5027 4.66602 23.9997C4.66602 15.2746 11.7389 8.20166 20.4641 8.20166C29.1892 8.20166 36.2621 15.2746 36.2621 23.9997Z" fill="#33ADC1"/>
<path d="M19.4898 39.7678C17.6235 39.6543 15.8452 39.2165 14.2094 38.5104C20.3273 30.2626 9.73633 22.4067 9.73633 22.4067L11.2798 22.0256L15.076 21.0889C15.076 21.0886 26.5041 28.0598 19.4898 39.7678Z" fill="#EAE0D3"/>
<path d="M15.5931 39.0316C15.1218 38.8795 14.66 38.7047 14.2094 38.5107C20.3273 30.2629 9.73633 22.407 9.73633 22.407L11.2798 22.0259C11.654 22.3057 12.1775 22.67 12.712 23.1697C15.4976 25.7717 19.5387 31.3088 15.5931 39.0316Z" fill="#D6C8B0"/>
<path d="M18.8875 16.9938C18.8875 20.4048 16.1226 23.1697 12.7114 23.1697C9.30037 23.1697 6.53543 20.4048 6.53543 16.9938C6.53543 16.4844 6.59666 15.9898 6.71333 15.5164C6.82928 15.0432 7.00019 14.5912 7.21811 14.1681L4.66602 11.616L8.84839 12.175L6.70296 9.51519L11.6075 10.9157L11.0729 8.20166C11.0729 8.20166 15.3396 10.5616 17.3669 12.9353C17.5205 13.1113 17.6637 13.2964 17.797 13.4893C18.4845 14.4849 18.8875 15.6918 18.8875 16.9938Z" fill="#EAE0D3"/>
<path d="M16.0309 15.7333C16.0309 16.5686 15.3538 17.246 14.5185 17.246C13.683 17.246 13.0059 16.5686 13.0059 15.7333C13.0059 14.8978 13.683 14.2207 14.5185 14.2207C15.3538 14.2207 16.0309 14.8978 16.0309 15.7333Z" fill="#2F373B"/>
<path d="M30.2093 16.7314C29.5884 17.0559 28.9339 16.9823 28.4084 16.808C27.7939 16.6051 27.3566 16.2659 27.3566 16.2659C27.3566 16.2659 25.1449 14.0947 26.8466 13.1495C27.3605 12.8646 27.7766 12.8658 28.1066 13.0075H28.1073C28.8715 13.3351 29.1783 14.41 29.1783 14.41C29.1783 14.41 29.7942 12.813 31.1567 13.2965C32.5184 13.7794 31.5552 16.028 30.2093 16.7314Z" fill="#FF648D"/>
<path d="M28.4084 16.808C27.7939 16.6051 27.3566 16.2659 27.3566 16.2659C27.3566 16.2659 25.1449 14.0947 26.8466 13.1495C27.3605 12.8646 27.7766 12.8658 28.1066 13.0075C27.3535 12.9651 27.3296 15.7404 28.4084 16.808Z" fill="#EA2F69"/>
<path d="M15.5997 15.2498C15.5997 15.5109 15.3881 15.7225 15.127 15.7225C14.8659 15.7225 14.6543 15.5109 14.6543 15.2498C14.6543 14.989 14.8659 14.7773 15.127 14.7773C15.3881 14.7773 15.5997 14.989 15.5997 15.2498Z" fill="white"/>
<path d="M27.909 17.4629C27.909 19.7669 21.6379 26.7625 25.7344 29.6614C26.7584 30.3863 27.8888 30.6225 29.0085 30.5695C30.128 30.6228 31.2583 30.3863 32.2826 29.6614C36.3789 26.7625 30.1077 19.7669 30.1077 17.4629" fill="#FF648D"/>
<path d="M28.839 30.5746C27.7745 30.5977 26.7066 30.3497 25.7344 29.6614C21.6378 26.7625 27.9092 19.7667 27.9092 17.4629H28.5813C28.5813 19.7667 26.1444 26.7625 27.7364 29.6614C28.0828 30.292 28.4605 30.5534 28.839 30.5746Z" fill="#EA2F69"/>
<path d="M28.8398 30.5749C28.896 30.5744 28.9522 30.5722 29.0083 30.5698C28.9522 30.5768 28.896 30.5787 28.8398 30.5749Z" fill="#EA2F69"/>
<path d="M29.1761 30.5749C29.1199 30.5787 29.064 30.5768 29.0078 30.5698C29.064 30.5722 29.1199 30.5744 29.1761 30.5749Z" fill="#EA2F69"/>
<path d="M33.1301 17.0569L17.5005 19.6405C17.5005 19.6405 16.955 18.8132 16.7564 17.7164C16.5797 16.7384 16.679 15.5459 17.6895 14.5356L33.1301 17.0569Z" fill="#FFD62C"/>
<path d="M33.1315 17.0566L17.502 19.6403C17.502 19.6403 16.9564 18.813 16.7578 17.7162L33.1315 17.0566Z" fill="#FFB92E"/>
<path d="M12.7114 23.1697C9.30037 23.1697 6.53543 20.4047 6.53543 16.9937C6.53543 16.4844 6.59666 15.9897 6.71333 15.5163C6.82928 15.0431 7.00019 14.5911 7.21811 14.1681L4.66602 11.616L8.84839 12.175L6.70296 9.51514L11.703 12.3297C11.703 12.3297 8.6148 13.4646 8.6148 17.0569C8.6148 20.6492 12.7114 23.1697 12.7114 23.1697Z" fill="#D6C8B0"/>
</g>
<path d="M100.901 30.8757C100.048 30.8757 99.2832 30.6654 98.6058 30.245C97.9285 29.8129 97.3912 29.2348 96.9941 28.5107C96.6087 27.7749 96.416 26.9457 96.416 26.023C96.416 25.1004 96.6262 24.2711 97.0467 23.5354C97.4788 22.7996 98.0569 22.2215 98.781 21.801C99.5168 21.3689 100.34 21.1528 101.251 21.1528C102.162 21.1528 102.98 21.3689 103.704 21.801C104.428 22.2215 105 22.7996 105.421 23.5354C105.853 24.2711 106.069 25.1004 106.069 26.023H105.386C105.386 26.9457 105.187 27.7749 104.79 28.5107C104.405 29.2348 103.873 29.8129 103.196 30.245C102.518 30.6654 101.753 30.8757 100.901 30.8757ZM101.251 29.299C101.847 29.299 102.378 29.1588 102.845 28.8785C103.313 28.5866 103.68 28.1953 103.949 27.7048C104.218 27.2026 104.352 26.642 104.352 26.023C104.352 25.3923 104.218 24.8317 103.949 24.3412C103.68 23.839 103.313 23.4478 102.845 23.1675C102.378 22.8755 101.847 22.7295 101.251 22.7295C100.667 22.7295 100.136 22.8755 99.657 23.1675C99.1898 23.4478 98.8161 23.839 98.5358 24.3412C98.2671 24.8317 98.1328 25.3923 98.1328 26.023C98.1328 26.642 98.2671 27.2026 98.5358 27.7048C98.8161 28.1953 99.1898 28.5866 99.657 28.8785C100.136 29.1588 100.667 29.299 101.251 29.299ZM105.175 30.8231C104.918 30.8231 104.702 30.7414 104.527 30.5778C104.364 30.4027 104.282 30.1866 104.282 29.9297V27.2493L104.615 25.3923L106.069 26.023V29.9297C106.069 30.1866 105.981 30.4027 105.806 30.5778C105.642 30.7414 105.432 30.8231 105.175 30.8231Z" fill="black"/>
<path d="M95.1337 30.5952C94.9819 30.7354 94.7658 30.8055 94.4855 30.8055C94.2169 30.7938 94.0067 30.712 93.8549 30.5602L89.5979 25.9878L93.6096 21.5031C93.7614 21.3396 93.9717 21.2461 94.2403 21.2228C94.5206 21.1994 94.7366 21.2578 94.8885 21.398C95.0637 21.5615 95.1629 21.7483 95.1863 21.9586C95.2097 22.1571 95.1454 22.3381 94.9936 22.5016L91.8227 25.9002L95.1863 29.5091C95.3381 29.6609 95.414 29.8419 95.414 30.0522C95.414 30.2507 95.3206 30.4317 95.1337 30.5952ZM88.1964 30.823C87.9394 30.823 87.735 30.7412 87.5832 30.5777C87.4314 30.4025 87.3555 30.1865 87.3555 29.9295V22.1162C87.3555 21.8476 87.4314 21.6315 87.5832 21.468C87.735 21.3045 87.9394 21.2228 88.1964 21.2228C88.465 21.2228 88.681 21.3045 88.8446 21.468C89.0197 21.6315 89.1073 21.8476 89.1073 22.1162V25.0418H91.3497V26.6886H89.1073V29.9295C89.1073 30.1865 89.0197 30.4025 88.8446 30.5777C88.681 30.7412 88.465 30.823 88.1964 30.823Z" fill="black"/>
<path d="M80.8014 30.8757C79.832 30.8757 78.9678 30.6713 78.2086 30.2625C77.4612 29.8421 76.8714 29.2698 76.4393 28.5457C76.0188 27.8099 75.8086 26.969 75.8086 26.023C75.8086 25.0653 76.0071 24.2244 76.4042 23.5003C76.813 22.7645 77.3736 22.1923 78.086 21.7835C78.7984 21.3631 79.616 21.1528 80.5386 21.1528C81.4496 21.1528 82.2321 21.3572 82.8861 21.766C83.5401 22.1631 84.0365 22.7178 84.3752 23.4303C84.7256 24.131 84.9008 24.9427 84.9008 25.8653C84.9008 26.0872 84.8248 26.2741 84.673 26.4259C84.5212 26.5661 84.3285 26.6362 84.0949 26.6362H77.0349V25.2347H84.0423L83.3241 25.7252C83.3124 25.1412 83.1956 24.6215 82.9737 24.166C82.7518 23.6989 82.4365 23.331 82.0277 23.0624C81.6189 22.7937 81.1226 22.6594 80.5386 22.6594C79.8729 22.6594 79.3006 22.8054 78.8218 23.0974C78.3546 23.3894 77.9984 23.7923 77.7532 24.3062C77.5079 24.8084 77.3853 25.3807 77.3853 26.023C77.3853 26.6654 77.5313 27.2376 77.8232 27.7398C78.1152 28.242 78.5181 28.6391 79.032 28.9311C79.5459 29.2231 80.1357 29.3691 80.8014 29.3691C81.1635 29.3691 81.5313 29.3048 81.9051 29.1764C82.2905 29.0362 82.6 28.8785 82.8336 28.7034C83.0087 28.5749 83.1956 28.5107 83.3942 28.5107C83.6044 28.499 83.7854 28.5574 83.9372 28.6858C84.1358 28.861 84.2409 29.0537 84.2526 29.264C84.2642 29.4742 84.1708 29.6552 83.9723 29.807C83.5752 30.1224 83.0788 30.3793 82.4832 30.5778C81.8992 30.7764 81.3386 30.8757 80.8014 30.8757Z" fill="black"/>
<path d="M69.4336 21.2402C69.6088 21.2402 69.7664 21.287 69.9066 21.3804C70.0467 21.4738 70.1577 21.6198 70.2394 21.8183L73.8483 29.6492C73.9534 29.8828 73.9651 30.093 73.8833 30.2798C73.8016 30.455 73.6614 30.5893 73.4629 30.6828C73.2059 30.7996 72.984 30.8288 72.7972 30.7704C72.6103 30.712 72.4526 30.566 72.3242 30.3324L69.0307 22.8519H69.9241L66.5255 30.3324C66.4204 30.5543 66.2627 30.7003 66.0525 30.7704C65.8539 30.8288 65.632 30.7996 65.3868 30.6828C65.1649 30.5777 65.0072 30.4375 64.9138 30.2623C64.832 30.0871 64.8495 29.8828 64.9663 29.6492L68.5927 21.8183C68.7679 21.4329 69.0482 21.2402 69.4336 21.2402Z" fill="black"/>
<path d="M59.2897 30.8757C58.3203 30.8757 57.4561 30.6713 56.6969 30.2625C55.9495 29.8421 55.3597 29.2698 54.9275 28.5457C54.5071 27.8099 54.2969 26.969 54.2969 26.023C54.2969 25.0653 54.4954 24.2244 54.8925 23.5003C55.3013 22.7645 55.8619 22.1923 56.5743 21.7835C57.2867 21.3631 58.1043 21.1528 59.0269 21.1528C59.9379 21.1528 60.7204 21.3572 61.3744 21.766C62.0284 22.1631 62.5248 22.7178 62.8635 23.4303C63.2139 24.131 63.389 24.9427 63.389 25.8653C63.389 26.0872 63.3131 26.2741 63.1613 26.4259C63.0095 26.5661 62.8168 26.6362 62.5832 26.6362H55.5232V25.2347H62.5306L61.8124 25.7252C61.8007 25.1412 61.6839 24.6215 61.462 24.166C61.2401 23.6989 60.9248 23.331 60.516 23.0624C60.1072 22.7937 59.6109 22.6594 59.0269 22.6594C58.3612 22.6594 57.7889 22.8054 57.3101 23.0974C56.8429 23.3894 56.4867 23.7923 56.2414 24.3062C55.9962 24.8084 55.8736 25.3807 55.8736 26.023C55.8736 26.6654 56.0195 27.2376 56.3115 27.7398C56.6035 28.242 57.0064 28.6391 57.5203 28.9311C58.0342 29.2231 58.624 29.3691 59.2897 29.3691C59.6517 29.3691 60.0196 29.3048 60.3934 29.1764C60.7788 29.0362 61.0883 28.8785 61.3218 28.7034C61.497 28.5749 61.6839 28.5107 61.8824 28.5107C62.0927 28.499 62.2737 28.5574 62.4255 28.6858C62.6241 28.861 62.7292 29.0537 62.7408 29.264C62.7525 29.4742 62.6591 29.6552 62.4605 29.807C62.0635 30.1224 61.5671 30.3793 60.9715 30.5778C60.3875 30.7764 59.8269 30.8757 59.2897 30.8757Z" fill="black"/>
<path d="M42.1669 30.8056C41.8399 30.8056 41.5888 30.6654 41.4136 30.3851C41.2384 30.1048 41.2209 29.807 41.361 29.4917L46.2837 17.7367C46.4589 17.3279 46.7451 17.1235 47.1422 17.1235C47.5626 17.1235 47.8487 17.3279 48.0006 17.7367L52.9408 29.5267C53.0693 29.8537 53.0518 30.1515 52.8883 30.4202C52.7364 30.6771 52.4912 30.8056 52.1525 30.8056C51.9773 30.8056 51.8079 30.7589 51.6444 30.6654C51.4926 30.5603 51.3817 30.4202 51.3116 30.245L46.9319 19.4535H47.4925L43.0078 30.245C42.926 30.4318 42.8034 30.572 42.6399 30.6654C42.488 30.7589 42.3304 30.8056 42.1669 30.8056Z" fill="black"/>
<defs>
<clipPath id="clip0_9311_32150">
<rect width="31.5961" height="31.5961" fill="white" transform="translate(4.66602 8.20166)"/>
</clipPath>
</defs>
</svg>
