<svg width="105" height="45" viewBox="0 0 105 45" fill="none" xmlns="http://www.w3.org/2000/svg">
<g clip-path="url(#clip0_15223_12802)">
<path d="M33.9963 22.5001C33.9963 30.6799 27.3655 37.3108 19.1857 37.3108C18.8785 37.3108 18.5739 37.3017 18.2717 37.283C17.0046 37.2061 15.7799 36.9693 14.6186 36.5926C14.1768 36.45 13.7438 36.2861 13.3214 36.1042C8.05823 33.833 4.375 28.5967 4.375 22.5001C4.375 14.3203 11.0059 7.68945 19.1857 7.68945C27.3655 7.68945 33.9963 14.3203 33.9963 22.5001Z" fill="#33ADC1"/>
<path d="M18.2718 37.283C16.5222 37.1765 14.855 36.7661 13.3215 36.1042C19.0569 28.3719 9.12793 21.007 9.12793 21.007L10.575 20.6497L14.1339 19.7715C14.1339 19.7713 24.8478 26.3067 18.2718 37.283Z" fill="#EAE0D3"/>
<path d="M14.6186 36.5928C14.1768 36.4502 13.7438 36.2863 13.3215 36.1044C19.0569 28.3721 9.12793 21.0072 9.12793 21.0072L10.575 20.6499C10.9257 20.9123 11.4166 21.2538 11.9176 21.7222C14.5292 24.1616 18.3177 29.3527 14.6186 36.5928Z" fill="#D6C8B0"/>
<path d="M17.7077 15.9321C17.7077 19.1299 15.1155 21.722 11.9175 21.722C8.71971 21.722 6.12757 19.1299 6.12757 15.9321C6.12757 15.4546 6.18498 14.9908 6.29436 14.547C6.40306 14.1034 6.56329 13.6796 6.76759 13.283L4.375 10.8904L8.29597 11.4145L6.28464 8.92089L10.8827 10.2339L10.3814 7.68945C10.3814 7.68945 14.3815 9.90192 16.2821 12.1273C16.4261 12.2922 16.5603 12.4658 16.6853 12.6466C17.3298 13.58 17.7077 14.7115 17.7077 15.9321Z" fill="#EAE0D3"/>
<path d="M15.0293 14.7506C15.0293 15.5337 14.3945 16.1687 13.6115 16.1687C12.8282 16.1687 12.1934 15.5337 12.1934 14.7506C12.1934 13.9673 12.8282 13.3325 13.6115 13.3325C14.3945 13.3325 15.0293 13.9673 15.0293 14.7506Z" fill="#2F373B"/>
<path d="M28.3203 15.6862C27.7381 15.9904 27.1246 15.9214 26.6319 15.758C26.0558 15.5677 25.6459 15.2498 25.6459 15.2498C25.6459 15.2498 23.5724 13.2143 25.1677 12.3281C25.6495 12.061 26.0396 12.0621 26.3489 12.195H26.3496C27.066 12.5022 27.3537 13.5099 27.3537 13.5099C27.3537 13.5099 27.9311 12.0127 29.2084 12.466C30.4851 12.9187 29.582 15.0267 28.3203 15.6862Z" fill="#FF648D"/>
<path d="M26.6319 15.758C26.0558 15.5677 25.6459 15.2498 25.6459 15.2498C25.6459 15.2498 23.5724 13.2143 25.1677 12.3281C25.6495 12.061 26.0396 12.0621 26.3489 12.195C25.6429 12.1553 25.6206 14.7571 26.6319 15.758Z" fill="#EA2F69"/>
<path d="M14.6256 14.2974C14.6256 14.5422 14.4272 14.7406 14.1824 14.7406C13.9377 14.7406 13.7393 14.5422 13.7393 14.2974C13.7393 14.0529 13.9377 13.8545 14.1824 13.8545C14.4272 13.8545 14.6256 14.0529 14.6256 14.2974Z" fill="white"/>
<path d="M26.1648 16.3716C26.1648 18.5316 20.2856 25.0899 24.1261 27.8077C25.0862 28.4873 26.1458 28.7087 27.1956 28.659C28.2451 28.709 29.3048 28.4873 30.265 27.8077C34.1053 25.0899 28.2261 18.5316 28.2261 16.3716" fill="#FF648D"/>
<path d="M27.0367 28.6638C26.0387 28.6855 25.0375 28.4529 24.1261 27.8077C20.2856 25.0899 26.165 18.5314 26.165 16.3716H26.7951C26.7951 18.5314 24.5105 25.0899 26.003 27.8077C26.3277 28.3989 26.6819 28.6439 27.0367 28.6638Z" fill="#EA2F69"/>
<path d="M27.0371 28.6639C27.0898 28.6635 27.1424 28.6614 27.1951 28.6592C27.1424 28.6657 27.0898 28.6675 27.0371 28.6639Z" fill="#EA2F69"/>
<path d="M27.3531 28.6639C27.3004 28.6675 27.248 28.6657 27.1953 28.6592C27.248 28.6614 27.3004 28.6635 27.3531 28.6639Z" fill="#EA2F69"/>
<path d="M31.0603 15.9911L16.4076 18.4133C16.4076 18.4133 15.8962 17.6377 15.71 16.6094C15.5443 15.6926 15.6374 14.5746 16.5848 13.6274L31.0603 15.9911Z" fill="#FFD62C"/>
<path d="M31.0603 15.9912L16.4076 18.4134C16.4076 18.4134 15.8962 17.6378 15.71 16.6095L31.0603 15.9912Z" fill="#FFB92E"/>
<path d="M11.9175 21.722C8.71971 21.722 6.12757 19.1299 6.12757 15.9321C6.12757 15.4546 6.18498 14.9908 6.29436 14.547C6.40306 14.1034 6.56329 13.6796 6.76759 13.283L4.375 10.8904L8.29597 11.4145L6.28464 8.9209L10.9722 11.5596C10.9722 11.5596 8.07699 12.6236 8.07699 15.9913C8.07699 19.3591 11.9175 21.722 11.9175 21.722Z" fill="#D6C8B0"/>
</g>
<path d="M94.5941 28.9462C93.7948 28.9462 93.0777 28.7491 92.4426 28.355C91.8076 27.9498 91.3039 27.4079 90.9316 26.729C90.5703 26.0392 90.3896 25.2618 90.3896 24.3968C90.3896 23.5319 90.5867 22.7545 90.9809 22.0647C91.386 21.3749 91.928 20.8329 92.6068 20.4387C93.2966 20.0336 94.0686 19.8311 94.9226 19.8311C95.7766 19.8311 96.5431 20.0336 97.2219 20.4387C97.9008 20.8329 98.4373 21.3749 98.8314 22.0647C99.2365 22.7545 99.4391 23.5319 99.4391 24.3968H98.7986C98.7986 25.2618 98.6125 26.0392 98.2402 26.729C97.8789 27.4079 97.3807 27.9498 96.7456 28.355C96.1106 28.7491 95.3934 28.9462 94.5941 28.9462ZM94.9226 27.4681C95.481 27.4681 95.9792 27.3367 96.4171 27.0739C96.8551 26.8002 97.2 26.4334 97.4518 25.9735C97.7037 25.5027 97.8296 24.9771 97.8296 24.3968C97.8296 23.8056 97.7037 23.28 97.4518 22.8202C97.2 22.3494 96.8551 21.9826 96.4171 21.7198C95.9792 21.4461 95.481 21.3092 94.9226 21.3092C94.3751 21.3092 93.8769 21.4461 93.428 21.7198C92.9901 21.9826 92.6397 22.3494 92.3769 22.8202C92.1251 23.28 91.9992 23.8056 91.9992 24.3968C91.9992 24.9771 92.1251 25.5027 92.3769 25.9735C92.6397 26.4334 92.9901 26.8002 93.428 27.0739C93.8769 27.3367 94.3751 27.4681 94.9226 27.4681ZM98.6015 28.8969C98.3606 28.8969 98.1581 28.8203 97.9938 28.667C97.8405 28.5028 97.7639 28.3002 97.7639 28.0593V25.5465L98.0759 23.8056L99.4391 24.3968V28.0593C99.4391 28.3002 99.357 28.5028 99.1928 28.667C99.0395 28.8203 98.8424 28.8969 98.6015 28.8969Z" fill="black"/>
<path d="M89.1886 28.6835C89.0463 28.8149 88.8437 28.8805 88.5809 28.8805C88.3291 28.8696 88.132 28.793 87.9897 28.6506L83.9987 24.364L87.7597 20.1596C87.9021 20.0063 88.0992 19.9187 88.351 19.8968C88.6138 19.8749 88.8163 19.9296 88.9587 20.061C89.1229 20.2143 89.216 20.3895 89.2379 20.5866C89.2598 20.7727 89.1996 20.9424 89.0572 21.0957L86.0845 24.2819L89.2379 27.6652C89.3802 27.8075 89.4514 27.9772 89.4514 28.1743C89.4514 28.3605 89.3638 28.5302 89.1886 28.6835ZM82.6848 28.897C82.4439 28.897 82.2523 28.8203 82.11 28.667C81.9677 28.5028 81.8965 28.3002 81.8965 28.0594V20.7344C81.8965 20.4826 81.9677 20.28 82.11 20.1267C82.2523 19.9734 82.4439 19.8968 82.6848 19.8968C82.9367 19.8968 83.1392 19.9734 83.2925 20.1267C83.4567 20.28 83.5389 20.4826 83.5389 20.7344V23.4772H85.6411V25.021H83.5389V28.0594C83.5389 28.3002 83.4567 28.5028 83.2925 28.667C83.1392 28.8203 82.9367 28.897 82.6848 28.897Z" fill="black"/>
<path d="M75.752 28.9462C74.8433 28.9462 74.033 28.7546 73.3213 28.3714C72.6206 27.9772 72.0677 27.4407 71.6625 26.7619C71.2684 26.0721 71.0713 25.2837 71.0713 24.3968C71.0713 23.499 71.2574 22.7107 71.6297 22.0318C72.0129 21.342 72.5385 20.8055 73.2064 20.4223C73.8743 20.0281 74.6407 19.8311 75.5057 19.8311C76.3597 19.8311 77.0933 20.0227 77.7065 20.4059C78.3196 20.7782 78.785 21.2982 79.1025 21.9661C79.431 22.6231 79.5952 23.384 79.5952 24.249C79.5952 24.4571 79.524 24.6322 79.3817 24.7746C79.2393 24.906 79.0587 24.9717 78.8397 24.9717H72.2209V23.6578H78.7904L78.1171 24.1176C78.1061 23.5702 77.9966 23.0829 77.7886 22.6559C77.5805 22.218 77.2849 21.8731 76.9017 21.6212C76.5185 21.3694 76.0531 21.2435 75.5057 21.2435C74.8816 21.2435 74.3451 21.3804 73.8962 21.6541C73.4582 21.9278 73.1243 22.3056 72.8943 22.7873C72.6644 23.2581 72.5494 23.7946 72.5494 24.3968C72.5494 24.999 72.6863 25.5356 72.96 26.0064C73.2337 26.4772 73.6115 26.8494 74.0933 27.1232C74.575 27.3969 75.1279 27.5338 75.752 27.5338C76.0915 27.5338 76.4364 27.4736 76.7867 27.3531C77.1481 27.2217 77.4382 27.0739 77.6572 26.9097C77.8214 26.7892 77.9966 26.729 78.1828 26.729C78.3798 26.7181 78.5495 26.7728 78.6919 26.8932C78.878 27.0575 78.9766 27.2381 78.9875 27.4352C78.9985 27.6323 78.9109 27.802 78.7247 27.9444C78.3525 28.24 77.8871 28.4809 77.3287 28.667C76.7813 28.8531 76.2557 28.9462 75.752 28.9462Z" fill="black"/>
<path d="M65.0952 19.9131C65.2594 19.9131 65.4073 19.9569 65.5386 20.0445C65.67 20.1321 65.774 20.2689 65.8507 20.4551L69.234 27.7965C69.3325 28.0154 69.3435 28.2125 69.2668 28.3877C69.1902 28.552 69.0588 28.6779 68.8727 28.7655C68.6318 28.875 68.4237 28.9023 68.2486 28.8476C68.0734 28.7928 67.9256 28.656 67.8051 28.437L64.7175 21.4241H65.5551L62.3689 28.437C62.2703 28.645 62.1225 28.7819 61.9254 28.8476C61.7393 28.9023 61.5313 28.875 61.3013 28.7655C61.0933 28.6669 60.9455 28.5355 60.8579 28.3713C60.7812 28.2071 60.7977 28.0154 60.9072 27.7965L64.3069 20.4551C64.4711 20.0937 64.7339 19.9131 65.0952 19.9131Z" fill="black"/>
<path d="M55.5841 28.9462C54.6753 28.9462 53.8651 28.7546 53.1534 28.3714C52.4526 27.9772 51.8997 27.4407 51.4946 26.7619C51.1004 26.0721 50.9033 25.2837 50.9033 24.3968C50.9033 23.499 51.0895 22.7107 51.4617 22.0318C51.8449 21.342 52.3705 20.8055 53.0384 20.4223C53.7063 20.0281 54.4727 19.8311 55.3377 19.8311C56.1918 19.8311 56.9253 20.0227 57.5385 20.4059C58.1516 20.7782 58.617 21.2982 58.9345 21.9661C59.263 22.6231 59.4272 23.384 59.4272 24.249C59.4272 24.4571 59.3561 24.6322 59.2137 24.7746C59.0714 24.906 58.8907 24.9717 58.6717 24.9717H52.053V23.6578H58.6225L57.9491 24.1176C57.9381 23.5702 57.8286 23.0829 57.6206 22.6559C57.4126 22.218 57.117 21.8731 56.7337 21.6212C56.3505 21.3694 55.8852 21.2435 55.3377 21.2435C54.7136 21.2435 54.1771 21.3804 53.7282 21.6541C53.2902 21.9278 52.9563 22.3056 52.7264 22.7873C52.4964 23.2581 52.3815 23.7946 52.3815 24.3968C52.3815 24.999 52.5183 25.5356 52.792 26.0064C53.0658 26.4772 53.4435 26.8494 53.9253 27.1232C54.407 27.3969 54.96 27.5338 55.5841 27.5338C55.9235 27.5338 56.2684 27.4736 56.6188 27.3531C56.9801 27.2217 57.2702 27.0739 57.4892 26.9097C57.6535 26.7892 57.8286 26.729 58.0148 26.729C58.2119 26.7181 58.3816 26.7728 58.5239 26.8932C58.7101 27.0575 58.8086 27.2381 58.8195 27.4352C58.8305 27.6323 58.7429 27.802 58.5568 27.9444C58.1845 28.24 57.7192 28.4809 57.1608 28.667C56.6133 28.8531 56.0877 28.9462 55.5841 28.9462Z" fill="black"/>
<path d="M39.5316 28.8806C39.225 28.8806 38.9896 28.7492 38.8253 28.4865C38.6611 28.2237 38.6447 27.9445 38.7761 27.6488L43.3911 16.6285C43.5554 16.2453 43.8236 16.0537 44.1959 16.0537C44.5901 16.0537 44.8583 16.2453 45.0007 16.6285L49.6321 27.6817C49.7526 27.9883 49.7362 28.2675 49.5829 28.5193C49.4405 28.7602 49.2106 28.8806 48.8931 28.8806C48.7288 28.8806 48.5701 28.8368 48.4168 28.7492C48.2744 28.6507 48.1704 28.5193 48.1047 28.3551L43.9988 18.2381H44.5244L40.3199 28.3551C40.2433 28.5302 40.1283 28.6616 39.975 28.7492C39.8327 28.8368 39.6848 28.8806 39.5316 28.8806Z" fill="black"/>
<defs>
<clipPath id="clip0_15223_12802">
<rect width="29.6213" height="29.6213" fill="white" transform="translate(4.375 7.68945)"/>
</clipPath>
</defs>
</svg>