<svg width="96" height="30" viewBox="0 0 96 30" fill="none" xmlns="http://www.w3.org/2000/svg">
<g clip-path="url(#clip0_15243_11497)">
<path d="M29.6213 14.8107C29.6213 22.9905 22.9905 29.6213 14.8107 29.6213C14.5035 29.6213 14.1989 29.6123 13.8967 29.5935C12.6296 29.5167 11.4049 29.2798 10.2436 28.9031C9.80176 28.7605 9.36875 28.5967 8.94637 28.4147C3.68323 26.1435 0 20.9073 0 14.8107C0 6.63085 6.63085 0 14.8107 0C22.9905 0 29.6213 6.63085 29.6213 14.8107Z" fill="#33ADC1"/>
<path d="M13.8968 29.5935C12.1472 29.4871 10.48 29.0767 8.94645 28.4148C14.6819 20.6824 4.75293 13.3175 4.75293 13.3175L6.19996 12.9602L9.75889 12.082C9.75889 12.0818 20.4728 18.6173 13.8968 29.5935Z" fill="#EAE0D3"/>
<path d="M10.2436 28.9028C9.80183 28.7602 9.36883 28.5964 8.94645 28.4145C14.6819 20.6821 4.75293 13.3173 4.75293 13.3173L6.19996 12.96C6.5507 13.2223 7.04156 13.5638 7.54258 14.0323C10.1542 16.4717 13.9427 21.6627 10.2436 28.9028Z" fill="#D6C8B0"/>
<path d="M13.3327 8.24263C13.3327 11.4404 10.7405 14.0326 7.54251 14.0326C4.34471 14.0326 1.75257 11.4404 1.75257 8.24263C1.75257 7.76511 1.80998 7.30137 1.91936 6.85752C2.02806 6.4139 2.18829 5.99016 2.39259 5.59355L0 3.20096L3.92097 3.72504L1.90964 1.23143L6.50769 2.54445L6.00643 0C6.00643 0 10.0065 2.21247 11.9071 4.43782C12.0511 4.60279 12.1853 4.77636 12.3103 4.95715C12.9548 5.8905 13.3327 7.02205 13.3327 8.24263Z" fill="#EAE0D3"/>
<path d="M10.6543 7.06068C10.6543 7.84375 10.0195 8.47879 9.23646 8.47879C8.45317 8.47879 7.81836 7.84375 7.81836 7.06068C7.81836 6.27739 8.45317 5.64258 9.23646 5.64258C10.0195 5.64258 10.6543 6.27739 10.6543 7.06068Z" fill="#2F373B"/>
<path d="M23.9453 7.99671C23.3631 8.3009 22.7496 8.23197 22.2569 8.06858C21.6808 7.87829 21.2709 7.56032 21.2709 7.56032C21.2709 7.56032 19.1974 5.52481 20.7927 4.63869C21.2745 4.37157 21.6646 4.3727 21.9739 4.50558H21.9746C22.691 4.8127 22.9787 5.8204 22.9787 5.8204C22.9787 5.8204 23.5561 4.3232 24.8334 4.77654C26.1101 5.22921 25.207 7.33727 23.9453 7.99671Z" fill="#FF648D"/>
<path d="M22.2569 8.06858C21.6808 7.87829 21.2709 7.56032 21.2709 7.56032C21.2709 7.56032 19.1974 5.52481 20.7927 4.63869C21.2745 4.37157 21.6646 4.3727 21.9739 4.50558C21.2679 4.4658 21.2456 7.06766 22.2569 8.06858Z" fill="#EA2F69"/>
<path d="M10.2506 6.60798C10.2506 6.85273 10.0522 7.05116 9.80743 7.05116C9.56268 7.05116 9.36426 6.85273 9.36426 6.60798C9.36426 6.36346 9.56268 6.16504 9.80743 6.16504C10.0522 6.16504 10.2506 6.36346 10.2506 6.60798Z" fill="white"/>
<path d="M21.7898 8.68262C21.7898 10.8427 15.9106 17.401 19.7511 20.1188C20.7112 20.7983 21.7708 21.0198 22.8206 20.9701C23.8701 21.02 24.9298 20.7983 25.89 20.1188C29.7303 17.401 23.8511 10.8427 23.8511 8.68262" fill="#FF648D"/>
<path d="M22.6617 20.9748C21.6637 20.9965 20.6625 20.764 19.7511 20.1188C15.9106 17.401 21.79 10.8424 21.79 8.68262H22.4201C22.4201 10.8424 20.1355 17.401 21.628 20.1188C21.9527 20.71 22.3069 20.9549 22.6617 20.9748Z" fill="#EA2F69"/>
<path d="M22.6621 20.9745C22.7148 20.974 22.7674 20.972 22.8201 20.9697C22.7674 20.9763 22.7148 20.9781 22.6621 20.9745Z" fill="#EA2F69"/>
<path d="M22.9781 20.9745C22.9254 20.9781 22.873 20.9763 22.8203 20.9697C22.873 20.972 22.9254 20.974 22.9781 20.9745Z" fill="#EA2F69"/>
<path d="M26.6853 8.30213L12.0326 10.7243C12.0326 10.7243 11.5212 9.94872 11.335 8.92045C11.1693 8.0036 11.2624 6.88561 12.2098 5.93848L26.6853 8.30213Z" fill="#FFD62C"/>
<path d="M26.6853 8.30176L12.0326 10.7239C12.0326 10.7239 11.5212 9.94834 11.335 8.92007L26.6853 8.30176Z" fill="#FFB92E"/>
<path d="M7.54251 14.0326C4.34471 14.0326 1.75257 11.4404 1.75257 8.24264C1.75257 7.76512 1.80998 7.30138 1.91936 6.85753C2.02806 6.41391 2.18829 5.99017 2.39259 5.59356L0 3.20097L3.92097 3.72505L1.90964 1.23145L6.59718 3.87014C6.59718 3.87014 3.70199 4.93411 3.70199 8.30185C3.70199 11.6696 7.54251 14.0326 7.54251 14.0326Z" fill="#D6C8B0"/>
</g>
<path d="M90.2191 21.2568C89.4198 21.2568 88.7027 21.0597 88.0676 20.6655C87.4326 20.2604 86.9289 19.7184 86.5566 19.0396C86.1953 18.3498 86.0146 17.5724 86.0146 16.7074C86.0146 15.8424 86.2117 15.065 86.6059 14.3752C87.011 13.6854 87.553 13.1434 88.2318 12.7493C88.9216 12.3442 89.6936 12.1416 90.5476 12.1416C91.4016 12.1416 92.1681 12.3442 92.8469 12.7493C93.5258 13.1434 94.0623 13.6854 94.4564 14.3752C94.8615 15.065 95.0641 15.8424 95.0641 16.7074H94.4236C94.4236 17.5724 94.2375 18.3498 93.8652 19.0396C93.5039 19.7184 93.0057 20.2604 92.3706 20.6655C91.7356 21.0597 91.0184 21.2568 90.2191 21.2568ZM90.5476 19.7786C91.106 19.7786 91.6042 19.6472 92.0421 19.3845C92.4801 19.1107 92.825 18.7439 93.0768 18.2841C93.3287 17.8133 93.4546 17.2877 93.4546 16.7074C93.4546 16.1161 93.3287 15.5906 93.0768 15.1307C92.825 14.6599 92.4801 14.2931 92.0421 14.0303C91.6042 13.7566 91.106 13.6197 90.5476 13.6197C90.0001 13.6197 89.5019 13.7566 89.053 14.0303C88.6151 14.2931 88.2647 14.6599 88.0019 15.1307C87.7501 15.5906 87.6242 16.1161 87.6242 16.7074C87.6242 17.2877 87.7501 17.8133 88.0019 18.2841C88.2647 18.7439 88.6151 19.1107 89.053 19.3845C89.5019 19.6472 90.0001 19.7786 90.5476 19.7786ZM94.2265 21.2075C93.9856 21.2075 93.7831 21.1308 93.6188 20.9776C93.4655 20.8133 93.3889 20.6108 93.3889 20.3699V17.857L93.7009 16.1161L95.0641 16.7074V20.3699C95.0641 20.6108 94.982 20.8133 94.8178 20.9776C94.6645 21.1308 94.4674 21.2075 94.2265 21.2075Z" fill="black"/>
<path d="M84.8136 20.9945C84.6713 21.1259 84.4687 21.1916 84.2059 21.1916C83.9541 21.1806 83.757 21.104 83.6147 20.9617L79.6237 16.6751L83.3847 12.4706C83.5271 12.3173 83.7242 12.2297 83.976 12.2078C84.2388 12.1859 84.4413 12.2407 84.5837 12.3721C84.7479 12.5253 84.841 12.7005 84.8629 12.8976C84.8848 13.0837 84.8246 13.2535 84.6822 13.4067L81.7095 16.5929L84.8629 19.9762C85.0052 20.1186 85.0764 20.2883 85.0764 20.4854C85.0764 20.6715 84.9888 20.8412 84.8136 20.9945ZM78.3098 21.208C78.0689 21.208 77.8773 21.1314 77.735 20.9781C77.5927 20.8138 77.5215 20.6113 77.5215 20.3704V13.0454C77.5215 12.7936 77.5927 12.591 77.735 12.4377C77.8773 12.2845 78.0689 12.2078 78.3098 12.2078C78.5617 12.2078 78.7642 12.2845 78.9175 12.4377C79.0817 12.591 79.1639 12.7936 79.1639 13.0454V15.7882H81.2661V17.332H79.1639V20.3704C79.1639 20.6113 79.0817 20.8138 78.9175 20.9781C78.7642 21.1314 78.5617 21.208 78.3098 21.208Z" fill="black"/>
<path d="M71.377 21.2568C70.4683 21.2568 69.658 21.0651 68.9463 20.6819C68.2456 20.2878 67.6927 19.7513 67.2875 19.0724C66.8934 18.3826 66.6963 17.5943 66.6963 16.7074C66.6963 15.8096 66.8824 15.0212 67.2547 14.3424C67.6379 13.6526 68.1635 13.1161 68.8314 12.7329C69.4993 12.3387 70.2657 12.1416 71.1307 12.1416C71.9847 12.1416 72.7183 12.3332 73.3315 12.7164C73.9446 13.0887 74.41 13.6088 74.7275 14.2767C75.056 14.9336 75.2202 15.6946 75.2202 16.5596C75.2202 16.7676 75.149 16.9428 75.0067 17.0851C74.8643 17.2165 74.6837 17.2822 74.4647 17.2822H67.8459V15.9683H74.4154L73.7421 16.4282C73.7311 15.8807 73.6216 15.3935 73.4136 14.9665C73.2055 14.5285 72.9099 14.1836 72.5267 13.9318C72.1435 13.68 71.6781 13.554 71.1307 13.554C70.5066 13.554 69.9701 13.6909 69.5212 13.9646C69.0832 14.2384 68.7493 14.6161 68.5193 15.0979C68.2894 15.5687 68.1744 16.1052 68.1744 16.7074C68.1744 17.3096 68.3113 17.8461 68.585 18.3169C68.8587 18.7877 69.2365 19.16 69.7183 19.4337C70.2 19.7075 70.7529 19.8443 71.377 19.8443C71.7165 19.8443 72.0614 19.7841 72.4117 19.6637C72.7731 19.5323 73.0632 19.3845 73.2822 19.2202C73.4464 19.0998 73.6216 19.0396 73.8078 19.0396C74.0048 19.0286 74.1745 19.0834 74.3169 19.2038C74.503 19.368 74.6016 19.5487 74.6125 19.7458C74.6235 19.9429 74.5359 20.1126 74.3497 20.2549C73.9775 20.5505 73.5121 20.7914 72.9537 20.9776C72.4063 21.1637 71.8807 21.2568 71.377 21.2568Z" fill="black"/>
<path d="M60.7202 12.2236C60.8844 12.2236 61.0323 12.2674 61.1636 12.355C61.295 12.4426 61.399 12.5795 61.4757 12.7656L64.859 20.107C64.9575 20.326 64.9685 20.5231 64.8918 20.6983C64.8152 20.8625 64.6838 20.9884 64.4977 21.076C64.2568 21.1855 64.0487 21.2129 63.8736 21.1581C63.6984 21.1034 63.5506 20.9665 63.4301 20.7475L60.3425 13.7346H61.1801L57.9939 20.7475C57.8953 20.9556 57.7475 21.0924 57.5504 21.1581C57.3643 21.2129 57.1563 21.1855 56.9263 21.076C56.7183 20.9775 56.5705 20.8461 56.4829 20.6818C56.4062 20.5176 56.4227 20.326 56.5322 20.107L59.9319 12.7656C60.0961 12.4043 60.3589 12.2236 60.7202 12.2236Z" fill="black"/>
<path d="M51.2091 21.2568C50.3003 21.2568 49.4901 21.0651 48.7784 20.6819C48.0776 20.2878 47.5247 19.7513 47.1196 19.0724C46.7254 18.3826 46.5283 17.5943 46.5283 16.7074C46.5283 15.8096 46.7145 15.0212 47.0867 14.3424C47.4699 13.6526 47.9955 13.1161 48.6634 12.7329C49.3313 12.3387 50.0977 12.1416 50.9627 12.1416C51.8168 12.1416 52.5503 12.3332 53.1635 12.7164C53.7766 13.0887 54.242 13.6088 54.5595 14.2767C54.888 14.9336 55.0522 15.6946 55.0522 16.5596C55.0522 16.7676 54.9811 16.9428 54.8387 17.0851C54.6964 17.2165 54.5157 17.2822 54.2967 17.2822H47.678V15.9683H54.2475L53.5741 16.4282C53.5631 15.8807 53.4536 15.3935 53.2456 14.9665C53.0376 14.5285 52.742 14.1836 52.3587 13.9318C51.9755 13.68 51.5102 13.554 50.9627 13.554C50.3386 13.554 49.8021 13.6909 49.3532 13.9646C48.9152 14.2384 48.5813 14.6161 48.3514 15.0979C48.1214 15.5687 48.0065 16.1052 48.0065 16.7074C48.0065 17.3096 48.1433 17.8461 48.417 18.3169C48.6908 18.7877 49.0685 19.16 49.5503 19.4337C50.032 19.7075 50.585 19.8443 51.2091 19.8443C51.5485 19.8443 51.8934 19.7841 52.2438 19.6637C52.6051 19.5323 52.8952 19.3845 53.1142 19.2202C53.2785 19.0998 53.4536 19.0396 53.6398 19.0396C53.8369 19.0286 54.0066 19.0834 54.1489 19.2038C54.3351 19.368 54.4336 19.5487 54.4445 19.7458C54.4555 19.9429 54.3679 20.1126 54.1818 20.2549C53.8095 20.5505 53.3442 20.7914 52.7858 20.9776C52.2383 21.1637 51.7127 21.2568 51.2091 21.2568Z" fill="black"/>
<path d="M35.1566 21.1912C34.85 21.1912 34.6146 21.0598 34.4503 20.797C34.2861 20.5342 34.2697 20.255 34.4011 19.9594L39.0161 8.93909C39.1804 8.55587 39.4486 8.36426 39.8209 8.36426C40.2151 8.36426 40.4833 8.55587 40.6257 8.93909L45.2571 19.9922C45.3776 20.2988 45.3612 20.578 45.2079 20.8298C45.0655 21.0707 44.8356 21.1912 44.5181 21.1912C44.3538 21.1912 44.1951 21.1474 44.0418 21.0598C43.8994 20.9612 43.7954 20.8298 43.7297 20.6656L39.6238 10.5486H40.1494L35.9449 20.6656C35.8683 20.8408 35.7533 20.9722 35.6 21.0598C35.4577 21.1474 35.3098 21.1912 35.1566 21.1912Z" fill="black"/>
<defs>
<clipPath id="clip0_15243_11497">
<rect width="29.6213" height="29.6213" fill="white"/>
</clipPath>
</defs>
</svg>
