<?xml version="1.0" encoding="UTF-8"?>
<svg version="1.1" xmlns="http://www.w3.org/2000/svg" width="250" height="250">
<path d="M0 0 C1.17127441 0.36206543 1.17127441 0.36206543 2.36621094 0.73144531 C18.1506397 5.75692423 32.52838441 12.99688522 45 24 C45.81726563 24.69738281 46.63453125 25.39476563 47.4765625 26.11328125 C66.79115811 42.94628021 80.14633869 64.31124277 87 89 C87.3196875 90.11246094 87.639375 91.22492188 87.96875 92.37109375 C92.65715477 112.18828612 92.1009687 136.58307964 86 156 C85.75862305 156.78084961 85.51724609 157.56169922 85.26855469 158.36621094 C80.24307577 174.1506397 73.00311478 188.52838441 62 201 C61.30261719 201.81726563 60.60523438 202.63453125 59.88671875 203.4765625 C43.05371979 222.79115811 21.68875723 236.14633869 -3 243 C-4.11246094 243.3196875 -5.22492188 243.639375 -6.37109375 243.96875 C-26.18828612 248.65715477 -50.58307964 248.1009687 -70 242 C-70.78084961 241.75862305 -71.56169922 241.51724609 -72.36621094 241.26855469 C-88.1506397 236.24307577 -102.52838441 229.00311478 -115 218 C-116.22589844 216.95392578 -116.22589844 216.95392578 -117.4765625 215.88671875 C-136.79115811 199.05371979 -150.14633869 177.68875723 -157 153 C-157.3196875 151.88753906 -157.639375 150.77507812 -157.96875 149.62890625 C-162.65715477 129.81171388 -162.1009687 105.41692036 -156 86 C-155.63793457 84.82872559 -155.63793457 84.82872559 -155.26855469 83.63378906 C-150.24307577 67.8493603 -143.00311478 53.47161559 -132 41 C-131.30261719 40.18273438 -130.60523438 39.36546875 -129.88671875 38.5234375 C-113.05371979 19.20884189 -91.68875723 5.85366131 -67 -1 C-65.33130859 -1.47953125 -65.33130859 -1.47953125 -63.62890625 -1.96875 C-43.81171388 -6.65715477 -19.41692036 -6.1009687 0 0 Z " fill="#DBDBDB" transform="translate(160,4)"/>
<path d="M0 0 C1.33169472 -0.01418472 1.33169472 -0.01418472 2.69029236 -0.02865601 C3.64658035 -0.02258331 4.60286835 -0.01651062 5.58813477 -0.01025391 C6.57322525 -0.01312408 7.55831573 -0.01599426 8.57325745 -0.01895142 C10.65707982 -0.02099334 12.7409213 -0.01545456 14.82470703 -0.00292969 C18.01386456 0.01310478 21.20175142 -0.00276555 24.39086914 -0.02197266 C26.41496048 -0.01998991 28.43905103 -0.01614559 30.46313477 -0.01025391 C31.41739853 -0.0163266 32.37166229 -0.02239929 33.35484314 -0.02865601 C34.6912661 -0.01447128 34.6912661 -0.01447128 36.0546875 0 C36.83617661 0.00238678 37.61766571 0.00477356 38.4228363 0.00723267 C41.20412503 0.49567643 42.57696639 1.42750483 44.59204102 3.38818359 C44.98523887 6.20772789 45.12965613 8.63221847 45.08813477 11.45068359 C45.08959 12.23838135 45.09104523 13.0260791 45.09254456 13.83764648 C45.09088557 15.50199077 45.07932413 17.1663504 45.05859375 18.83056641 C45.02964442 21.37908036 45.03798211 23.92551359 45.05102539 26.47412109 C45.04478769 28.09131871 45.03639649 29.70850975 45.02563477 31.32568359 C45.0285704 32.08824463 45.03150604 32.85080566 45.03453064 33.63647461 C44.94040156 38.91158953 44.94040156 38.91158953 43.34901428 41.08877563 C41.11320236 42.74231918 39.8418857 42.76813166 37.07641602 42.77636719 C35.70984863 42.79055191 35.70984863 42.79055191 34.31567383 42.80502319 C33.334375 42.7989505 32.35307617 42.79287781 31.34204102 42.78662109 C30.33238281 42.78949127 29.32272461 42.79236145 28.2824707 42.7953186 C26.14737385 42.79736048 24.01225835 42.79182205 21.87719727 42.77929688 C18.60463731 42.76324538 15.33331245 42.77914184 12.06079102 42.79833984 C9.98787162 42.79635743 7.91495299 42.79251381 5.84204102 42.78662109 C4.86074219 42.79269379 3.87944336 42.79876648 2.8684082 42.80502319 C1.50184082 42.79083847 1.50184082 42.79083847 0.10766602 42.77636719 C-0.69380859 42.77398041 -1.4952832 42.77159363 -2.32104492 42.76913452 C-4.95659682 42.28803376 -5.83866496 41.53685824 -7.40795898 39.38818359 C-7.70621242 36.62399327 -7.82840785 34.08969765 -7.80639648 31.32568359 C-7.81070175 30.14413696 -7.81070175 30.14413696 -7.81509399 28.9387207 C-7.8171342 27.27440674 -7.81160731 25.61006879 -7.79907227 23.94580078 C-7.78301707 21.39740413 -7.79892143 18.85059339 -7.81811523 16.30224609 C-7.81613279 14.68505509 -7.8122891 13.06786508 -7.80639648 11.45068359 C-7.81246918 10.68812256 -7.81854187 9.92556152 -7.82479858 9.13989258 C-7.75456117 3.86019344 -7.75456117 3.86019344 -6.15919495 1.68759155 C-3.95330478 0.05083254 -2.73041298 0.00834757 0 0 Z " fill="#B9B9B9" transform="translate(106.407958984375,103.61181640625)"/>
<path d="M0 0 C4.18550737 1.39516912 5.75591571 4.39932602 8.1875 7.875 C8.65091797 8.51308594 9.11433594 9.15117187 9.59179688 9.80859375 C13 14.61722202 13 14.61722202 13 18 C1.12 18 -10.76 18 -23 18 C-22.02219431 13.11097154 -21.61210204 12.09298219 -18.4375 8.6875 C-17.79683594 7.99011719 -17.15617187 7.29273437 -16.49609375 6.57421875 C-16.00238281 6.05472656 -15.50867188 5.53523438 -15 5 C-14.236875 5.639375 -13.47375 6.27875 -12.6875 6.9375 C-10.11753287 9.14232781 -10.11753287 9.14232781 -7 10 C-6.773125 9.46375 -6.54625 8.9275 -6.3125 8.375 C-4.56617944 5.21499137 -2.3597151 2.7323017 0 0 Z " fill="#DBDBDB" transform="translate(130,120)"/>
<path d="M0 0 C0.625 2.375 0.625 2.375 1 5 C0.34 5.66 -0.32 6.32 -1 7 C-4.53571429 6.46428571 -4.53571429 6.46428571 -6 5 C-6.04063832 3.33382885 -6.042721 1.66611905 -6 0 C-3.50907189 -1.24546405 -2.58919267 -0.7767578 0 0 Z " fill="#DCDCDC" transform="translate(121,113)"/>
</svg>
